%TF.GenerationSoftware,KiCad,Pcbnew,9.0.4*%
%TF.CreationDate,2025-10-17T10:30:08-05:00*%
%TF.ProjectId,Lab7_302,4c616237-5f33-4303-922e-6b696361645f,rev?*%
%TF.SameCoordinates,Original*%
%TF.FileFunction,Copper,L1,Top*%
%TF.FilePolarity,Positive*%
%FSLAX46Y46*%
G04 Gerber Fmt 4.6, Leading zero omitted, Abs format (unit mm)*
G04 Created by KiCad (PCBNEW 9.0.4) date 2025-10-17 10:30:08*
%MOMM*%
%LPD*%
G01*
G04 APERTURE LIST*
G04 Aperture macros list*
%AMRoundRect*
0 Rectangle with rounded corners*
0 $1 Rounding radius*
0 $2 $3 $4 $5 $6 $7 $8 $9 X,Y pos of 4 corners*
0 Add a 4 corners polygon primitive as box body*
4,1,4,$2,$3,$4,$5,$6,$7,$8,$9,$2,$3,0*
0 Add four circle primitives for the rounded corners*
1,1,$1+$1,$2,$3*
1,1,$1+$1,$4,$5*
1,1,$1+$1,$6,$7*
1,1,$1+$1,$8,$9*
0 Add four rect primitives between the rounded corners*
20,1,$1+$1,$2,$3,$4,$5,0*
20,1,$1+$1,$4,$5,$6,$7,0*
20,1,$1+$1,$6,$7,$8,$9,0*
20,1,$1+$1,$8,$9,$2,$3,0*%
G04 Aperture macros list end*
%TA.AperFunction,ComponentPad*%
%ADD10C,2.800000*%
%TD*%
%TA.AperFunction,ComponentPad*%
%ADD11C,1.600000*%
%TD*%
%TA.AperFunction,SMDPad,CuDef*%
%ADD12RoundRect,0.150000X-0.725000X-0.150000X0.725000X-0.150000X0.725000X0.150000X-0.725000X0.150000X0*%
%TD*%
%TA.AperFunction,ComponentPad*%
%ADD13R,1.905000X2.000000*%
%TD*%
%TA.AperFunction,ComponentPad*%
%ADD14O,1.905000X2.000000*%
%TD*%
%TA.AperFunction,ComponentPad*%
%ADD15RoundRect,0.250000X-1.550000X0.750000X-1.550000X-0.750000X1.550000X-0.750000X1.550000X0.750000X0*%
%TD*%
%TA.AperFunction,ComponentPad*%
%ADD16O,3.600000X2.000000*%
%TD*%
%TA.AperFunction,ComponentPad*%
%ADD17R,2.000000X1.905000*%
%TD*%
%TA.AperFunction,ComponentPad*%
%ADD18O,2.000000X1.905000*%
%TD*%
%TA.AperFunction,ComponentPad*%
%ADD19C,2.400000*%
%TD*%
%TA.AperFunction,ComponentPad*%
%ADD20R,1.800000X1.800000*%
%TD*%
%TA.AperFunction,ComponentPad*%
%ADD21C,1.800000*%
%TD*%
%TA.AperFunction,ComponentPad*%
%ADD22RoundRect,0.250000X1.550000X-0.750000X1.550000X0.750000X-1.550000X0.750000X-1.550000X-0.750000X0*%
%TD*%
%TA.AperFunction,ComponentPad*%
%ADD23O,2.500000X1.600000*%
%TD*%
%TA.AperFunction,ComponentPad*%
%ADD24O,7.000000X3.500000*%
%TD*%
%TA.AperFunction,ViaPad*%
%ADD25C,4.000000*%
%TD*%
%TA.AperFunction,Conductor*%
%ADD26C,0.900000*%
%TD*%
%TA.AperFunction,Conductor*%
%ADD27C,0.700000*%
%TD*%
G04 APERTURE END LIST*
D10*
%TO.P,LOWDR_T4,1,1*%
%TO.N,LOWDR*%
X159222500Y-55500000D03*
%TD*%
%TO.P,Vin_T1,1,1*%
%TO.N,Vin+*%
X108222500Y-55500000D03*
%TD*%
D11*
%TO.P,C5,1*%
%TO.N,BOOT*%
X111472500Y-73500000D03*
%TO.P,C5,2*%
%TO.N,SW*%
X108972500Y-73500000D03*
%TD*%
D10*
%TO.P,10V_T2,1,1*%
%TO.N,10V*%
X124222500Y-55500000D03*
%TD*%
D11*
%TO.P,C3,1*%
%TO.N,GND*%
X109472500Y-89500000D03*
%TO.P,C3,2*%
%TO.N,10V*%
X111972500Y-89500000D03*
%TD*%
D10*
%TO.P,GND_T6,1,1*%
%TO.N,GND*%
X200722500Y-82000000D03*
%TD*%
D12*
%TO.P,IC2,1,IN*%
%TO.N,PWM*%
X112147500Y-80595000D03*
%TO.P,IC2,2,PGND*%
%TO.N,GND*%
X112147500Y-81865000D03*
%TO.P,IC2,3,DT*%
%TO.N,SW*%
X112147500Y-83135000D03*
%TO.P,IC2,4,VCC*%
%TO.N,10V*%
X112147500Y-84405000D03*
%TO.P,IC2,5,LOWDR*%
%TO.N,LOWDR*%
X117297500Y-84405000D03*
%TO.P,IC2,6,BOOTLO*%
%TO.N,SW*%
X117297500Y-83135000D03*
%TO.P,IC2,7,HIGHDR*%
%TO.N,HIGHDR*%
X117297500Y-81865000D03*
%TO.P,IC2,8,BOOT*%
%TO.N,BOOT*%
X117297500Y-80595000D03*
%TD*%
D10*
%TO.P,Vout-_T7,1,1*%
%TO.N,Vout-*%
X200722500Y-95000000D03*
%TD*%
D11*
%TO.P,C2,1*%
%TO.N,Vout+*%
X152222500Y-91750000D03*
%TO.P,C2,2*%
%TO.N,Vout-*%
X152222500Y-89250000D03*
%TD*%
D12*
%TO.P,U1,1*%
%TO.N,OPAMP_OUT*%
X128925000Y-119595000D03*
%TO.P,U1,2,-*%
%TO.N,Net-(U1A--)*%
X128925000Y-120865000D03*
%TO.P,U1,3,+*%
%TO.N,Vout-*%
X128925000Y-122135000D03*
%TO.P,U1,4,V-*%
%TO.N,GND*%
X128925000Y-123405000D03*
%TO.P,U1,5,+*%
%TO.N,unconnected-(U1B-+-Pad5)*%
X134075000Y-123405000D03*
%TO.P,U1,6,-*%
%TO.N,unconnected-(U1B---Pad6)*%
X134075000Y-122135000D03*
%TO.P,U1,7*%
%TO.N,unconnected-(U1-Pad7)*%
X134075000Y-120865000D03*
%TO.P,U1,8,V+*%
%TO.N,10V*%
X134075000Y-119595000D03*
%TD*%
D13*
%TO.P,Q2,1,G*%
%TO.N,Net-(Q2-G)*%
X128222500Y-85500000D03*
D14*
%TO.P,Q2,2,D*%
%TO.N,SW*%
X125682500Y-85500000D03*
%TO.P,Q2,3,S*%
%TO.N,GND*%
X123142500Y-85500000D03*
%TD*%
D10*
%TO.P,OPAMP_OUT_T8,1,1*%
%TO.N,OPAMP_OUT*%
X124222500Y-139500000D03*
%TD*%
D15*
%TO.P,Vin1,1,Pin_1*%
%TO.N,Vin+*%
X91277500Y-83000000D03*
D16*
%TO.P,Vin1,2,Pin_2*%
%TO.N,GND*%
X91277500Y-88000000D03*
%TD*%
D17*
%TO.P,Q1,1,G*%
%TO.N,Net-(Q1-G)*%
X128772500Y-72960000D03*
D18*
%TO.P,Q1,2,D*%
%TO.N,Vin+*%
X128772500Y-75500000D03*
%TO.P,Q1,3,S*%
%TO.N,SW*%
X128772500Y-78040000D03*
%TD*%
D11*
%TO.P,C7,1*%
%TO.N,Vin+*%
X99972500Y-81500000D03*
%TO.P,C7,2*%
%TO.N,GND*%
X102472500Y-81500000D03*
%TD*%
D10*
%TO.P,PWN_T3,1,1*%
%TO.N,PWM*%
X139722500Y-55500000D03*
%TD*%
D11*
%TO.P,R4,1*%
%TO.N,Net-(Q1-G)*%
X118722500Y-73580000D03*
%TO.P,R4,2*%
%TO.N,HIGHDR*%
X118722500Y-63420000D03*
%TD*%
%TO.P,C4,1*%
%TO.N,10V*%
X139000000Y-120250000D03*
%TO.P,C4,2*%
%TO.N,GND*%
X139000000Y-122750000D03*
%TD*%
D19*
%TO.P,R1,1*%
%TO.N,GND*%
X114255000Y-110000000D03*
%TO.P,R1,2*%
%TO.N,Vout-*%
X144735000Y-110000000D03*
%TD*%
D10*
%TO.P,GND_T2,1,1*%
%TO.N,GND*%
X130222500Y-55500000D03*
%TD*%
%TO.P,GND_T8,1,1*%
%TO.N,GND*%
X137722500Y-139500000D03*
%TD*%
D20*
%TO.P,L1,1,1*%
%TO.N,unconnected-(L1-Pad1)*%
X142222500Y-88000000D03*
D21*
%TO.P,L1,2,2*%
%TO.N,SW*%
X137222500Y-88000000D03*
%TO.P,L1,3,3*%
%TO.N,Vout+*%
X142222500Y-92000000D03*
%TO.P,L1,4,4*%
%TO.N,unconnected-(L1-Pad4)*%
X137222500Y-92000000D03*
%TD*%
D11*
%TO.P,C6,1*%
%TO.N,Vin+*%
X99972500Y-88500000D03*
%TO.P,C6,2*%
%TO.N,GND*%
X102472500Y-88500000D03*
%TD*%
%TO.P,R2,1*%
%TO.N,GND*%
X125580000Y-126000000D03*
%TO.P,R2,2*%
%TO.N,Net-(U1A--)*%
X115420000Y-126000000D03*
%TD*%
D10*
%TO.P,GND_T3,1,1*%
%TO.N,GND*%
X146722500Y-55500000D03*
%TD*%
D22*
%TO.P,Vout1,1,Pin_1*%
%TO.N,Vout+*%
X162222500Y-92500000D03*
D16*
%TO.P,Vout1,2,Pin_2*%
%TO.N,Vout-*%
X162222500Y-87500000D03*
%TD*%
D11*
%TO.P,C1,1*%
%TO.N,Vin+*%
X122222500Y-77250000D03*
%TO.P,C1,2*%
%TO.N,GND*%
X122222500Y-79750000D03*
%TD*%
D10*
%TO.P,GND_T7,1,1*%
%TO.N,GND*%
X200722500Y-103000000D03*
%TD*%
%TO.P,GND_T4,1,1*%
%TO.N,GND*%
X166722500Y-55500000D03*
%TD*%
%TO.P,Vout+_T6,1,1*%
%TO.N,Vout+*%
X200722500Y-72500000D03*
%TD*%
%TO.P,LOW_Vds_T5,1,1*%
%TO.N,SW*%
X179222500Y-55500000D03*
%TD*%
%TO.P,GND_T5,1,1*%
%TO.N,GND*%
X186722500Y-55500000D03*
%TD*%
D11*
%TO.P,R3,1*%
%TO.N,Net-(U1A--)*%
X115420000Y-120000000D03*
%TO.P,R3,2*%
%TO.N,OPAMP_OUT*%
X125580000Y-120000000D03*
%TD*%
D15*
%TO.P,10VD1,1,Pin_1*%
%TO.N,10V*%
X91277500Y-97000000D03*
D16*
%TO.P,10VD1,2,Pin_2*%
%TO.N,GND*%
X91277500Y-102000000D03*
%TD*%
D23*
%TO.P,PWM1,1,In*%
%TO.N,PWM*%
X84580000Y-68920000D03*
D24*
%TO.P,PWM1,2,Ext*%
%TO.N,GND*%
X79500000Y-74000000D03*
D23*
X84580000Y-71460000D03*
D24*
X79500000Y-63840000D03*
%TD*%
D11*
%TO.P,R5,1*%
%TO.N,LOWDR*%
X117222500Y-88920000D03*
%TO.P,R5,2*%
%TO.N,Net-(Q2-G)*%
X117222500Y-99080000D03*
%TD*%
D10*
%TO.P,GND_T1,1,1*%
%TO.N,GND*%
X114222500Y-55500000D03*
%TD*%
D25*
%TO.N,*%
X77500000Y-52000000D03*
X202500000Y-52000000D03*
X77500000Y-143000000D03*
X202500000Y-143000000D03*
%TD*%
D26*
%TO.N,GND*%
X111126873Y-81865000D02*
X112147500Y-81865000D01*
X109472500Y-89500000D02*
X109472500Y-83519373D01*
D27*
X128925000Y-123405000D02*
X128175000Y-123405000D01*
D26*
X109472500Y-83519373D02*
X111126873Y-81865000D01*
D27*
X128175000Y-123405000D02*
X125580000Y-126000000D01*
%TO.N,10V*%
X111480000Y-97000000D02*
X104472500Y-97000000D01*
X104472500Y-97000000D02*
X91277500Y-97000000D01*
X134075000Y-119595000D02*
X138345000Y-119595000D01*
D26*
X112147500Y-84405000D02*
X112147500Y-89325000D01*
X112147500Y-89325000D02*
X111972500Y-89500000D01*
D27*
X111972500Y-89500000D02*
X104472500Y-97000000D01*
X138345000Y-119595000D02*
X139000000Y-120250000D01*
X134075000Y-119595000D02*
X111480000Y-97000000D01*
%TO.N,Vin+*%
X122222500Y-77250000D02*
X127022500Y-77250000D01*
X129287000Y-75500000D02*
X130323500Y-74463500D01*
X130323500Y-71456500D02*
X116318000Y-57451000D01*
X130323500Y-74463500D02*
X130323500Y-71456500D01*
X110173500Y-57451000D02*
X108222500Y-55500000D01*
X128772500Y-75500000D02*
X129287000Y-75500000D01*
X127022500Y-77250000D02*
X128772500Y-75500000D01*
X116318000Y-57451000D02*
X110173500Y-57451000D01*
X99972500Y-81500000D02*
X92777500Y-81500000D01*
X91277500Y-80518103D02*
X91277500Y-83000000D01*
X82779000Y-72019603D02*
X91277500Y-80518103D01*
X108222500Y-55500000D02*
X95639397Y-55500000D01*
X92777500Y-81500000D02*
X91277500Y-83000000D01*
X99972500Y-81500000D02*
X99972500Y-88500000D01*
X95639397Y-55500000D02*
X82779000Y-68360397D01*
X82779000Y-68360397D02*
X82779000Y-72019603D01*
%TO.N,Vout+*%
X152222500Y-104988788D02*
X152222500Y-91750000D01*
X142222500Y-109963788D02*
X144009712Y-111751000D01*
X161472500Y-91750000D02*
X162222500Y-92500000D01*
X142222500Y-92000000D02*
X142222500Y-109963788D01*
X145460288Y-111751000D02*
X152222500Y-104988788D01*
X144009712Y-111751000D02*
X145460288Y-111751000D01*
X182222500Y-72500000D02*
X162222500Y-92500000D01*
X200722500Y-72500000D02*
X182222500Y-72500000D01*
X152222500Y-91750000D02*
X161472500Y-91750000D01*
%TO.N,Vout-*%
X142719476Y-89451000D02*
X152021500Y-89451000D01*
X160472500Y-89250000D02*
X162222500Y-87500000D01*
X127534397Y-122135000D02*
X122271500Y-127397897D01*
X143636505Y-122845126D02*
X143636505Y-112651999D01*
X143636505Y-112651999D02*
X140771500Y-109786994D01*
X122271500Y-127397897D02*
X122271500Y-140308131D01*
X152222500Y-89250000D02*
X160472500Y-89250000D01*
X122271500Y-140308131D02*
X123414369Y-141451000D01*
X183070501Y-112651999D02*
X143636505Y-112651999D01*
X140771500Y-109786994D02*
X140771500Y-91398976D01*
X152222500Y-89250000D02*
X144735000Y-96737500D01*
X140771500Y-91398976D02*
X142719476Y-89451000D01*
X123414369Y-141451000D02*
X125030631Y-141451000D01*
X144735000Y-96737500D02*
X144735000Y-110000000D01*
X200722500Y-95000000D02*
X183070501Y-112651999D01*
X128925000Y-122135000D02*
X127534397Y-122135000D01*
X152021500Y-89451000D02*
X152222500Y-89250000D01*
X125030631Y-141451000D02*
X143636505Y-122845126D01*
%TO.N,SW*%
X113573500Y-82583999D02*
X113022499Y-83135000D01*
X112147500Y-83135000D02*
X117297500Y-83135000D01*
X108972500Y-75549478D02*
X113573500Y-80150478D01*
X179222500Y-55500000D02*
X169722500Y-55500000D01*
X111272501Y-83135000D02*
X112147500Y-83135000D01*
X169722500Y-55500000D02*
X137222500Y-88000000D01*
X125682500Y-84985500D02*
X125682500Y-85500000D01*
X133171500Y-83949000D02*
X126719000Y-83949000D01*
X113573500Y-80150478D02*
X113573500Y-82583999D01*
X125682500Y-81130000D02*
X125682500Y-85500000D01*
X117297500Y-83135000D02*
X123677500Y-83135000D01*
X137222500Y-88000000D02*
X133171500Y-83949000D01*
X123677500Y-83135000D02*
X125682500Y-81130000D01*
X113022499Y-83135000D02*
X112147500Y-83135000D01*
X128772500Y-78040000D02*
X125682500Y-81130000D01*
X108972500Y-73500000D02*
X108972500Y-75549478D01*
X126719000Y-83949000D02*
X125682500Y-84985500D01*
%TO.N,BOOT*%
X111472500Y-74770000D02*
X111472500Y-73500000D01*
X117297500Y-80595000D02*
X111472500Y-74770000D01*
%TO.N,HIGHDR*%
X117297500Y-81865000D02*
X117898022Y-81865000D01*
X118723500Y-75491603D02*
X117371500Y-74139603D01*
X117898022Y-81865000D02*
X118723500Y-81039522D01*
X117371500Y-64771000D02*
X118722500Y-63420000D01*
X117371500Y-74139603D02*
X117371500Y-64771000D01*
X118723500Y-81039522D02*
X118723500Y-75491603D01*
%TO.N,LOWDR*%
X117297500Y-84405000D02*
X117297500Y-88845000D01*
X117297500Y-88845000D02*
X117222500Y-88920000D01*
%TO.N,PWM*%
X112147500Y-80595000D02*
X100472500Y-68920000D01*
X100472500Y-68920000D02*
X84580000Y-68920000D01*
%TO.N,OPAMP_OUT*%
X128925000Y-119595000D02*
X129799999Y-119595000D01*
X128925000Y-119595000D02*
X125985000Y-119595000D01*
X125985000Y-119595000D02*
X125580000Y-120000000D01*
X129799999Y-119595000D02*
X130351000Y-120146001D01*
X130351000Y-120146001D02*
X130351000Y-133371500D01*
X130351000Y-133371500D02*
X124222500Y-139500000D01*
%TO.N,Net-(Q1-G)*%
X119342500Y-72960000D02*
X118722500Y-73580000D01*
X128772500Y-72960000D02*
X119342500Y-72960000D01*
%TO.N,Net-(Q2-G)*%
X128222500Y-85500000D02*
X128222500Y-88080000D01*
X128222500Y-88080000D02*
X117222500Y-99080000D01*
%TO.N,Net-(U1A--)*%
X128925000Y-120865000D02*
X126625603Y-120865000D01*
X115420000Y-120000000D02*
X115420000Y-126000000D01*
X116771000Y-121351000D02*
X115420000Y-120000000D01*
X126625603Y-120865000D02*
X126139603Y-121351000D01*
X126139603Y-121351000D02*
X116771000Y-121351000D01*
%TD*%
M02*
