M48
; DRILL file {KiCad 9.0.4} date 2025-10-17T10:30:15-0500
; FORMAT={-:-/ absolute / metric / decimal}
; #@! TF.CreationDate,2025-10-17T10:30:15-05:00
; #@! TF.GenerationSoftware,Kicad,Pcbnew,9.0.4
; #@! TF.FileFunction,Plated,1,2,PTH
FMAT,2
METRIC
; #@! TA.AperFunction,Plated,PTH,ComponentDrill
T1C0.800
; #@! TA.AperFunction,Plated,PTH,ComponentDrill
T2C0.890
; #@! TA.AperFunction,Plated,PTH,ComponentDrill
T3C1.100
; #@! TA.AperFunction,Plated,PTH,ComponentDrill
T4C1.200
; #@! TA.AperFunction,Plated,PTH,ComponentDrill
T5C1.400
; #@! TA.AperFunction,Plated,PTH,ComponentDrill
T6C1.600
; #@! TA.AperFunction,Plated,PTH,ComponentDrill
T7C2.010
; #@! TA.AperFunction,Plated,PTH,ViaDrill
T8C3.400
%
G90
G05
T1
X99.972Y-81.5
X99.972Y-88.5
X102.472Y-81.5
X102.472Y-88.5
X108.972Y-73.5
X109.472Y-89.5
X111.472Y-73.5
X111.972Y-89.5
X115.42Y-120.0
X115.42Y-126.0
X117.222Y-88.92
X117.222Y-99.08
X118.722Y-63.42
X118.722Y-73.58
X122.222Y-77.25
X122.222Y-79.75
X125.58Y-120.0
X125.58Y-126.0
X139.0Y-120.25
X139.0Y-122.75
X152.222Y-89.25
X152.222Y-91.75
T2
X84.58Y-68.92
X84.58Y-71.46
T3
X123.142Y-85.5
X125.682Y-85.5
X128.222Y-85.5
X128.773Y-72.96
X128.773Y-75.5
X128.773Y-78.04
T4
X114.255Y-110.0
X137.222Y-88.0
X137.222Y-92.0
X142.222Y-88.0
X142.222Y-92.0
X144.735Y-110.0
T5
X91.277Y-83.0
X91.277Y-88.0
X91.277Y-97.0
X91.277Y-102.0
X162.222Y-87.5
X162.222Y-92.5
T6
X108.222Y-55.5
X114.222Y-55.5
X124.222Y-55.5
X124.222Y-139.5
X130.222Y-55.5
X137.722Y-139.5
X139.722Y-55.5
X146.722Y-55.5
X159.222Y-55.5
X166.722Y-55.5
X179.222Y-55.5
X186.722Y-55.5
X200.722Y-72.5
X200.722Y-82.0
X200.722Y-95.0
X200.722Y-103.0
T7
X79.5Y-63.84
X79.5Y-74.0
T8
X77.5Y-52.0
X77.5Y-143.0
X202.5Y-52.0
X202.5Y-143.0
M30
