%TF.GenerationSoftware,KiCad,Pcbnew,9.0.4*%
%TF.CreationDate,2025-10-17T10:30:09-05:00*%
%TF.ProjectId,Lab7_302,4c616237-5f33-4303-922e-6b696361645f,rev?*%
%TF.SameCoordinates,Original*%
%TF.FileFunction,Soldermask,Top*%
%TF.FilePolarity,Negative*%
%FSLAX46Y46*%
G04 Gerber Fmt 4.6, Leading zero omitted, Abs format (unit mm)*
G04 Created by KiCad (PCBNEW 9.0.4) date 2025-10-17 10:30:09*
%MOMM*%
%LPD*%
G01*
G04 APERTURE LIST*
G04 Aperture macros list*
%AMRoundRect*
0 Rectangle with rounded corners*
0 $1 Rounding radius*
0 $2 $3 $4 $5 $6 $7 $8 $9 X,Y pos of 4 corners*
0 Add a 4 corners polygon primitive as box body*
4,1,4,$2,$3,$4,$5,$6,$7,$8,$9,$2,$3,0*
0 Add four circle primitives for the rounded corners*
1,1,$1+$1,$2,$3*
1,1,$1+$1,$4,$5*
1,1,$1+$1,$6,$7*
1,1,$1+$1,$8,$9*
0 Add four rect primitives between the rounded corners*
20,1,$1+$1,$2,$3,$4,$5,0*
20,1,$1+$1,$4,$5,$6,$7,0*
20,1,$1+$1,$6,$7,$8,$9,0*
20,1,$1+$1,$8,$9,$2,$3,0*%
G04 Aperture macros list end*
%ADD10C,2.800000*%
%ADD11C,1.600000*%
%ADD12RoundRect,0.150000X-0.725000X-0.150000X0.725000X-0.150000X0.725000X0.150000X-0.725000X0.150000X0*%
%ADD13R,1.905000X2.000000*%
%ADD14O,1.905000X2.000000*%
%ADD15RoundRect,0.250000X-1.550000X0.750000X-1.550000X-0.750000X1.550000X-0.750000X1.550000X0.750000X0*%
%ADD16O,3.600000X2.000000*%
%ADD17R,2.000000X1.905000*%
%ADD18O,2.000000X1.905000*%
%ADD19C,2.400000*%
%ADD20R,1.800000X1.800000*%
%ADD21C,1.800000*%
%ADD22RoundRect,0.250000X1.550000X-0.750000X1.550000X0.750000X-1.550000X0.750000X-1.550000X-0.750000X0*%
%ADD23O,2.500000X1.600000*%
%ADD24O,7.000000X3.500000*%
G04 APERTURE END LIST*
D10*
%TO.C,LOWDR_T4*%
X159222500Y-55500000D03*
%TD*%
%TO.C,Vin_T1*%
X108222500Y-55500000D03*
%TD*%
D11*
%TO.C,C5*%
X111472500Y-73500000D03*
X108972500Y-73500000D03*
%TD*%
D10*
%TO.C,10V_T2*%
X124222500Y-55500000D03*
%TD*%
D11*
%TO.C,C3*%
X109472500Y-89500000D03*
X111972500Y-89500000D03*
%TD*%
D10*
%TO.C,GND_T6*%
X200722500Y-82000000D03*
%TD*%
D12*
%TO.C,IC2*%
X112147500Y-80595000D03*
X112147500Y-81865000D03*
X112147500Y-83135000D03*
X112147500Y-84405000D03*
X117297500Y-84405000D03*
X117297500Y-83135000D03*
X117297500Y-81865000D03*
X117297500Y-80595000D03*
%TD*%
D10*
%TO.C,Vout-_T7*%
X200722500Y-95000000D03*
%TD*%
D11*
%TO.C,C2*%
X152222500Y-91750000D03*
X152222500Y-89250000D03*
%TD*%
D12*
%TO.C,U1*%
X128925000Y-119595000D03*
X128925000Y-120865000D03*
X128925000Y-122135000D03*
X128925000Y-123405000D03*
X134075000Y-123405000D03*
X134075000Y-122135000D03*
X134075000Y-120865000D03*
X134075000Y-119595000D03*
%TD*%
D13*
%TO.C,Q2*%
X128222500Y-85500000D03*
D14*
X125682500Y-85500000D03*
X123142500Y-85500000D03*
%TD*%
D10*
%TO.C,OPAMP_OUT_T8*%
X124222500Y-139500000D03*
%TD*%
D15*
%TO.C,Vin1*%
X91277500Y-83000000D03*
D16*
X91277500Y-88000000D03*
%TD*%
D17*
%TO.C,Q1*%
X128772500Y-72960000D03*
D18*
X128772500Y-75500000D03*
X128772500Y-78040000D03*
%TD*%
D11*
%TO.C,C7*%
X99972500Y-81500000D03*
X102472500Y-81500000D03*
%TD*%
D10*
%TO.C,PWN_T3*%
X139722500Y-55500000D03*
%TD*%
D11*
%TO.C,R4*%
X118722500Y-73580000D03*
X118722500Y-63420000D03*
%TD*%
%TO.C,C4*%
X139000000Y-120250000D03*
X139000000Y-122750000D03*
%TD*%
D19*
%TO.C,R1*%
X114255000Y-110000000D03*
X144735000Y-110000000D03*
%TD*%
D10*
%TO.C,GND_T2*%
X130222500Y-55500000D03*
%TD*%
%TO.C,GND_T8*%
X137722500Y-139500000D03*
%TD*%
D20*
%TO.C,L1*%
X142222500Y-88000000D03*
D21*
X137222500Y-88000000D03*
X142222500Y-92000000D03*
X137222500Y-92000000D03*
%TD*%
D11*
%TO.C,C6*%
X99972500Y-88500000D03*
X102472500Y-88500000D03*
%TD*%
%TO.C,R2*%
X125580000Y-126000000D03*
X115420000Y-126000000D03*
%TD*%
D10*
%TO.C,GND_T3*%
X146722500Y-55500000D03*
%TD*%
D22*
%TO.C,Vout1*%
X162222500Y-92500000D03*
D16*
X162222500Y-87500000D03*
%TD*%
D11*
%TO.C,C1*%
X122222500Y-77250000D03*
X122222500Y-79750000D03*
%TD*%
D10*
%TO.C,GND_T7*%
X200722500Y-103000000D03*
%TD*%
%TO.C,GND_T4*%
X166722500Y-55500000D03*
%TD*%
%TO.C,Vout+_T6*%
X200722500Y-72500000D03*
%TD*%
%TO.C,LOW_Vds_T5*%
X179222500Y-55500000D03*
%TD*%
%TO.C,GND_T5*%
X186722500Y-55500000D03*
%TD*%
D11*
%TO.C,R3*%
X115420000Y-120000000D03*
X125580000Y-120000000D03*
%TD*%
D15*
%TO.C,10VD1*%
X91277500Y-97000000D03*
D16*
X91277500Y-102000000D03*
%TD*%
D23*
%TO.C,PWM1*%
X84580000Y-68920000D03*
D24*
X79500000Y-74000000D03*
D23*
X84580000Y-71460000D03*
D24*
X79500000Y-63840000D03*
%TD*%
D11*
%TO.C,R5*%
X117222500Y-88920000D03*
X117222500Y-99080000D03*
%TD*%
D10*
%TO.C,GND_T1*%
X114222500Y-55500000D03*
%TD*%
M02*
